<svg width="51" height="51" viewBox="0 0 51 51" fill="none" xmlns="http://www.w3.org/2000/svg">
<path d="M50.9995 0C45.8417 0.354609 9.60583 3.80508 7.07276 28.6487C6.76497 31.3042 6.59065 33.9718 6.4761 36.6413L24.2932 18.8421C24.9158 18.2196 25.9268 18.2196 26.5494 18.8421C27.1719 19.4647 27.1719 20.4737 26.5494 21.0963L0.700752 46.919C-0.233584 47.8523 -0.233584 49.3664 0.700752 50.2997C1.63509 51.2331 3.15015 51.2331 4.08548 50.2997L9.77616 44.615C13.9687 44.6011 18.1583 44.363 22.323 43.8819C27.6501 43.34 31.9871 41.2453 35.5292 38.25H25.4736L40.0953 33.3811C41.2159 31.8979 42.2239 30.3221 43.1284 28.6875H35.0461L45.6584 23.3873C49.8331 13.2341 50.8192 2.61574 50.9995 0Z" fill="#111111"/>
</svg>
