<?xml version="1.0" encoding="UTF-8"?>
<svg id="Calque_2" data-name="Calque 2" xmlns="http://www.w3.org/2000/svg" viewBox="0 0 187.79 183.47">
  <defs>
    <style>
      .cls-1 {
        fill: #001e36;
      }

      .cls-2 {
        fill: #99f;
      }
    </style>
  </defs>
  <g id="_ÎÓÈ_1" data-name="—ÎÓÈ_1">
    <g>
      <rect class="cls-1" width="187.79" height="183.47" rx="30.54" ry="30.54"/>
      <g>
        <path class="cls-2" d="m67.69,46.81h-15.24l-26.06,81.79h15.24l6.18-19.4h31.4l6.18,19.4h15.24l-26.06-81.79h-6.88Zm-14.9,46.77l10.72-33.65,10.72,33.65h-21.44Z"/>
        <path class="cls-2" d="m161.4,94.97c0,2.37-.16,4.36-.49,5.99h-38.01c.16,5.87,1.41,9.34,5.18,12.43,3.42,2.77,6.09,3.13,11.52,3.13,6,0,11.39-2.1,16.32-3.97l.11,12.39c-5.76,2.45-10.55,3.67-18.39,3.67-9.43,0-16.83-2.71-22.22-8.13-5.37-5.42-8.07-12.7-8.07-21.83s2.5-16.43,7.52-22.38c5.25-6.35,12.34-9.53,21.26-9.53s15.4,3.18,19.91,9.53c3.57,5.05,5.36,11.29,5.36,18.7Zm-15.24-5.41c.09-3.91-2.9-11.75-11.04-11.75s-11.82,7.76-12.23,11.75h23.26Z"/>
      </g>
    </g>
  </g>
</svg>