<?xml version="1.0" encoding="UTF-8"?>
<svg id="Calque_2" data-name="Calque 2" xmlns="http://www.w3.org/2000/svg" viewBox="0 0 196.1 196.1">
  <defs>
    <style>
      .cls-1 {
        fill: #fff;
      }

      .cls-2 {
        fill: #1877f2;
      }
    </style>
  </defs>
  <g id="icon_set" data-name="icon set">
    <g>
      <path class="cls-2" d="m0,98.05c0,54.15,43.9,98.05,98.05,98.05s98.05-43.9,98.05-98.05S152.2,0,98.05,0,0,43.9,0,98.05Z"/>
      <path class="cls-1" d="m147.07,98.05c0-26.96-22.06-49.02-49.02-49.02s-49.02,22.06-49.02,49.02c0,24.51,17.77,44.73,41.06,48.41v-34.32h-12.26v-14.09h12.26v-11.03c0-12.26,7.35-19,18.38-19,5.52,0,11.03,1.23,11.03,1.23v12.26h-6.13c-6.13,0-7.97,3.68-7.97,7.35v9.19h13.48l-2.45,14.09h-11.64v34.93c24.51-3.68,42.28-24.51,42.28-49.02Z"/>
    </g>
  </g>
</svg>