<?xml version="1.0" encoding="UTF-8"?>
<svg id="Calque_2" data-name="Calque 2" xmlns="http://www.w3.org/2000/svg" viewBox="0 0 196.1 196.1">
  <defs>
    <style>
      .cls-1 {
        fill: #f24e1e;
      }

      .cls-2 {
        fill: #ff7262;
      }

      .cls-3 {
        fill: #a259ff;
      }

      .cls-4 {
        fill: #0acf83;
      }

      .cls-5 {
        fill: #1abcfe;
      }
    </style>
  </defs>
  <g id="icon_set" data-name="icon set">
    <g>
      <path d="m196.1,30.64c0-16.92-13.72-30.64-30.64-30.64H30.64C13.72,0,0,13.72,0,30.64v134.82c0,16.92,13.72,30.64,30.64,30.64h134.82c16.92,0,30.64-13.72,30.64-30.64V30.64Z"/>
      <path class="cls-5" d="m97.94,98.05c0-9.03,7.32-16.34,16.34-16.34s16.34,7.32,16.34,16.34-7.32,16.34-16.34,16.34-16.34-7.32-16.34-16.34Z"/>
      <path class="cls-4" d="m65.26,130.73c0-9.02,7.32-16.34,16.34-16.34h16.34v16.34c0,9.03-7.32,16.34-16.34,16.34s-16.34-7.32-16.34-16.34Z"/>
      <path class="cls-2" d="m97.94,49.02v32.68h16.34c9.03,0,16.34-7.32,16.34-16.34s-7.32-16.34-16.34-16.34h-16.34Z"/>
      <path class="cls-1" d="m65.26,65.37c0,9.02,7.32,16.34,16.34,16.34h16.34v-32.68h-16.34c-9.03,0-16.34,7.32-16.34,16.34Z"/>
      <path class="cls-3" d="m65.26,98.05c0,9.03,7.32,16.34,16.34,16.34h16.34v-32.69h-16.34c-9.03,0-16.34,7.32-16.34,16.34Z"/>
    </g>
  </g>
</svg>