<svg width="43" height="40" viewBox="0 0 43 40" fill="none" xmlns="http://www.w3.org/2000/svg">
<path d="M19.125 29.8829C19.125 30.2 18.9991 30.504 18.7749 30.7282C18.5507 30.9523 18.2467 31.0783 17.9297 31.0783H15.9375V37.8517C15.9375 38.1687 15.8116 38.4727 15.5874 38.6969C15.3632 38.9211 15.0592 39.047 14.7422 39.047C14.4252 39.047 14.1211 38.9211 13.897 38.6969C13.6728 38.4727 13.5469 38.1687 13.5469 37.8517V31.0783H11.5547C11.2377 31.0783 10.9336 30.9523 10.7095 30.7282C10.4853 30.504 10.3594 30.2 10.3594 29.8829C10.3594 29.5659 10.4853 29.2619 10.7095 29.0377C10.9336 28.8136 11.2377 28.6876 11.5547 28.6876H17.9297C18.2467 28.6876 18.5507 28.8136 18.7749 29.0377C18.9991 29.2619 19.125 29.5659 19.125 29.8829ZM6.77344 28.6876C6.45642 28.6876 6.15239 28.8136 5.92822 29.0377C5.70406 29.2619 5.57812 29.5659 5.57812 29.8829V32.672H2.39062V29.8829C2.39062 29.5659 2.26469 29.2619 2.04053 29.0377C1.81636 28.8136 1.51233 28.6876 1.19531 28.6876C0.878296 28.6876 0.574263 28.8136 0.350099 29.0377C0.125934 29.2619 0 29.5659 0 29.8829V37.8517C0 38.1687 0.125934 38.4727 0.350099 38.6969C0.574263 38.9211 0.878296 39.047 1.19531 39.047C1.51233 39.047 1.81636 38.9211 2.04053 38.6969C2.26469 38.4727 2.39062 38.1687 2.39062 37.8517V35.0626H5.57812V37.8517C5.57812 38.1687 5.70406 38.4727 5.92822 38.6969C6.15239 38.9211 6.45642 39.047 6.77344 39.047C7.09045 39.047 7.39449 38.9211 7.61865 38.6969C7.84281 38.4727 7.96875 38.1687 7.96875 37.8517V29.8829C7.96875 29.5659 7.84281 29.2619 7.61865 29.0377C7.39449 28.8136 7.09045 28.6876 6.77344 28.6876ZM41.0391 36.6564H37.4531V29.8829C37.4531 29.5659 37.3272 29.2619 37.103 29.0377C36.8789 28.8136 36.5748 28.6876 36.2578 28.6876C35.9408 28.6876 35.6368 28.8136 35.4126 29.0377C35.1884 29.2619 35.0625 29.5659 35.0625 29.8829V37.8517C35.0625 38.1687 35.1884 38.4727 35.4126 38.6969C35.6368 38.9211 35.9408 39.047 36.2578 39.047H41.0391C41.3561 39.047 41.6601 38.9211 41.8843 38.6969C42.1084 38.4727 42.2344 38.1687 42.2344 37.8517C42.2344 37.5347 42.1084 37.2306 41.8843 37.0065C41.6601 36.7823 41.3561 36.6564 41.0391 36.6564ZM31.0383 28.7474C30.798 28.6702 30.5395 28.671 30.2997 28.7497C30.0599 28.8285 29.8512 28.9811 29.7035 29.1857L26.6953 33.4091L23.6871 29.1857C23.5403 28.9779 23.331 28.8224 23.0897 28.7418C22.8484 28.6611 22.5877 28.6596 22.3455 28.7374C22.1032 28.8152 21.8922 28.9682 21.7429 29.1742C21.5937 29.3803 21.514 29.6285 21.5156 29.8829V37.8517C21.5156 38.1687 21.6416 38.4727 21.8657 38.6969C22.0899 38.9211 22.3939 39.047 22.7109 39.047C23.028 39.047 23.332 38.9211 23.5562 38.6969C23.7803 38.4727 23.9062 38.1687 23.9062 37.8517V33.6083L25.7191 36.1583C25.8322 36.3108 25.9793 36.4346 26.1489 36.52C26.3184 36.6053 26.5055 36.6498 26.6953 36.6498C26.8851 36.6498 27.0722 36.6053 27.2418 36.52C27.4113 36.4346 27.5584 36.3108 27.6715 36.1583L29.4844 33.6083V37.8517C29.4844 38.1687 29.6103 38.4727 29.8345 38.6969C30.0586 38.9211 30.3627 39.047 30.6797 39.047C30.9967 39.047 31.3007 38.9211 31.5249 38.6969C31.7491 38.4727 31.875 38.1687 31.875 37.8517V29.8829C31.874 29.6294 31.7924 29.3827 31.642 29.1786C31.4916 28.9745 31.2802 28.8235 31.0383 28.7474ZM35.4609 23.1095C35.1439 23.1095 34.8399 22.9836 34.6157 22.7594C34.3916 22.5352 34.2656 22.2312 34.2656 21.9142V13.547H24.3047C23.9877 13.547 23.6836 13.4211 23.4595 13.1969C23.2353 12.9727 23.1094 12.6687 23.1094 12.3517V2.39076H5.17969C5.07402 2.39076 4.97267 2.43273 4.89795 2.50746C4.82323 2.58218 4.78125 2.68352 4.78125 2.78919V21.9142C4.78125 22.2312 4.65532 22.5352 4.43115 22.7594C4.20699 22.9836 3.90295 23.1095 3.58594 23.1095C3.26892 23.1095 2.96489 22.9836 2.74072 22.7594C2.51656 22.5352 2.39062 22.2312 2.39062 21.9142V2.78919C2.39062 2.04949 2.68447 1.34008 3.20752 0.817029C3.73057 0.293979 4.43998 0.000131568 5.17969 0.000131568H24.3047C24.4615 -0.00227724 24.6171 0.0284146 24.7613 0.0902038C24.9055 0.151993 25.035 0.243491 25.1414 0.358725L36.2977 11.4951C36.4116 11.6067 36.502 11.74 36.5635 11.8871C36.6251 12.0342 36.6567 12.1922 36.6562 12.3517V21.9142C36.6562 22.2312 36.5303 22.5352 36.3062 22.7594C36.082 22.9836 35.778 23.1095 35.4609 23.1095ZM25.5 11.1564H32.5723L25.5 4.08412V11.1564Z" fill="#111111"/>
</svg>
