<?xml version="1.0" encoding="UTF-8"?>
<svg id="Calque_2" data-name="Calque 2" xmlns="http://www.w3.org/2000/svg" viewBox="0 0 196.1 196.1">
  <defs>
    <style>
      .cls-1 {
        fill: #fff;
      }

      .cls-2 {
        fill: #f00073;
      }
    </style>
  </defs>
  <g id="icon_set" data-name="icon set">
    <g>
      <path class="cls-2" d="m0,98.05c0,54.15,43.89,98.05,98.05,98.05s98.05-43.9,98.05-98.05S152.2,0,98.05,0,0,43.9,0,98.05Z"/>
      <path class="cls-1" d="m98.05,56.38h20.84c4.9,0,7.35,1.23,9.19,1.84,2.45,1.23,4.29,1.84,6.13,3.68,1.84,1.84,3.06,3.68,3.68,6.13.61,1.84,1.23,4.29,1.84,9.19v41.67c0,4.9-1.23,7.35-1.84,9.19-1.23,2.45-1.84,4.29-3.68,6.13-1.84,1.84-3.68,3.06-6.13,3.68-1.84.61-4.29,1.23-9.19,1.84h-41.67c-4.9,0-7.35-1.23-9.19-1.84-2.45-1.23-4.29-1.84-6.13-3.68-1.84-1.84-3.06-3.68-3.68-6.13-.61-1.84-1.23-4.29-1.84-9.19v-41.67c0-4.9,1.23-7.35,1.84-9.19,1.23-2.45,1.84-4.29,3.68-6.13,1.84-1.84,3.68-3.06,6.13-3.68,1.84-.61,4.29-1.23,9.19-1.84h20.84Zm0-9.19h-20.84c-5.52,0-9.19,1.23-12.26,2.45-3.06,1.23-6.13,3.06-9.19,6.13s-4.29,5.52-6.13,9.19c-1.23,3.06-1.84,6.74-2.45,12.26v41.67c0,5.52,1.23,9.19,2.45,12.26,1.23,3.06,3.06,6.13,6.13,9.19s5.52,4.29,9.19,6.13c3.06,1.23,6.74,1.84,12.26,2.45h41.67c5.52,0,9.19-1.23,12.26-2.45,3.06-1.23,6.13-3.06,9.19-6.13,3.06-3.06,4.29-5.52,6.13-9.19,1.23-3.06,1.84-6.74,2.45-12.26v-41.67c0-5.52-1.23-9.19-2.45-12.26-1.23-3.06-3.06-6.13-6.13-9.19-3.06-3.06-5.52-4.29-9.19-6.13-3.06-1.23-6.74-1.84-12.26-2.45h-20.84Z"/>
      <path class="cls-1" d="m98.05,71.7c-14.71,0-26.35,11.64-26.35,26.35s11.64,26.35,26.35,26.35,26.35-11.64,26.35-26.35-11.64-26.35-26.35-26.35Zm0,43.51c-9.19,0-17.16-7.35-17.16-17.16,0-9.19,7.35-17.16,17.16-17.16,9.19,0,17.16,7.35,17.16,17.16,0,9.19-7.97,17.16-17.16,17.16Z"/>
      <path class="cls-1" d="m125.01,77.21c3.38,0,6.13-2.74,6.13-6.13s-2.75-6.13-6.13-6.13-6.13,2.74-6.13,6.13,2.75,6.13,6.13,6.13Z"/>
    </g>
  </g>
</svg>