<?xml version="1.0" encoding="UTF-8"?>
<svg id="Calque_2" data-name="Calque 2" xmlns="http://www.w3.org/2000/svg" viewBox="0 0 196.1 196.1">
  <defs>
    <style>
      .cls-1 {
        fill: #fff;
      }

      .cls-2 {
        fill: #2867b2;
      }
    </style>
  </defs>
  <g id="icon_set" data-name="icon set">
    <g>
      <path class="cls-2" d="m0,98.05c0,54.15,43.9,98.05,98.05,98.05s98.05-43.9,98.05-98.05S152.2,0,98.05,0,0,43.9,0,98.05Z"/>
      <path class="cls-1" d="m71.09,147.07h-20.84v-65.57h20.84v65.57Zm-10.42-74.76c-6.74,0-11.64-4.9-11.64-11.64s5.52-11.64,11.64-11.64c6.74,0,11.64,4.9,11.64,11.64s-4.9,11.64-11.64,11.64Zm86.41,74.76h-20.84v-35.54c0-10.42-4.29-13.48-10.42-13.48s-12.26,4.9-12.26,14.09v34.93h-20.84v-65.57h19.61v9.19c1.84-4.29,9.19-11.03,19.61-11.03,11.64,0,23.9,6.74,23.9,26.96v40.44h1.23Z"/>
    </g>
  </g>
</svg>