<svg width="43" height="43" viewBox="0 0 43 43" fill="none" xmlns="http://www.w3.org/2000/svg">
<path d="M4.78125 34.5312C3.43542 32.9729 2.35521 31.2375 1.54062 29.325C0.726041 27.4125 0.2125 25.3937 0 23.2687H4.35625C4.56875 24.8271 4.95833 26.3054 5.525 27.7036C6.09167 29.1033 6.83542 30.3875 7.75625 31.5562L4.78125 34.5312ZM0 19.0187C0.283333 16.8937 0.814583 14.875 1.59375 12.9625C2.37292 11.05 3.43542 9.31458 4.78125 7.75625L7.75625 10.7313C6.83542 11.9 6.09167 13.1835 5.525 14.5817C4.95833 15.9814 4.56875 17.4604 4.35625 19.0187H0ZM19.0187 42.2875C16.8937 42.075 14.8842 41.5615 12.9901 40.7469C11.0946 39.9323 9.35 38.8875 7.75625 37.6125L10.7313 34.5312C11.9708 35.4521 13.2727 36.2135 14.637 36.8156C15.9998 37.4177 17.4604 37.825 19.0187 38.0375V42.2875ZM10.8375 7.75625L7.75625 4.675C9.35 3.4 11.0946 2.35521 12.9901 1.54063C14.8842 0.726042 16.9292 0.2125 19.125 0V4.25C17.5312 4.4625 16.0437 4.86979 14.6625 5.47188C13.2812 6.07396 12.0062 6.83542 10.8375 7.75625ZM15.9375 30.7062V11.5812L30.8125 21.1437L15.9375 30.7062ZM23.375 42.2875V38.0375C27.6604 37.4354 31.2113 35.5406 34.0276 32.3531C36.8425 29.1656 38.25 25.4292 38.25 21.1437C38.25 16.8583 36.8425 13.1219 34.0276 9.93438C31.2113 6.74688 27.6604 4.85208 23.375 4.25V0C28.8292 0.602083 33.3802 2.90417 37.0281 6.90625C40.676 10.9083 42.5 15.6542 42.5 21.1437C42.5 26.6333 40.676 31.3792 37.0281 35.3813C33.3802 39.3833 28.8292 41.6854 23.375 42.2875Z" fill="black"/>
</svg>
