<?xml version="1.0" encoding="UTF-8"?>
<svg id="Calque_2" data-name="Calque 2" xmlns="http://www.w3.org/2000/svg" viewBox="0 0 185.14 180.87">
  <defs>
    <style>
      .cls-1 {
        fill: #001e36;
      }

      .cls-2 {
        fill: #31a8ff;
      }
    </style>
  </defs>
  <g id="_ÎÓÈ_1" data-name="—ÎÓÈ_1">
    <g>
      <rect class="cls-1" width="185.14" height="180.87" rx="30.1" ry="30.1"/>
      <path class="cls-2" d="m65.16,46.39h-28.48v57.95h0v22.95h15.35v-22.95h13.13c15.94,0,28.98-13.04,28.98-28.98h0c0-15.94-13.04-28.98-28.98-28.98Zm13.64,28.98c0,7.61-6.08,13.84-13.51,13.84h-13.26v-27.68h13.26c7.43,0,13.51,6.23,13.51,13.84h0Z"/>
      <path class="cls-2" d="m144.49,69.84s-5.23-4.13-16.02-4.13-26.31,3.38-26.31,19.48c0,18.6,27.3,16.92,27.3,26.42,0,7.51-19.94,4.22-27.3-3.14v17.12s5.59,5.75,19.21,5.75,27.08-6.6,27.08-19.23c0-15.68-19.54-20.75-19.54-20.75,0,0-11.72-3.19-11.5-7.73.11-2.31,1.82-5.04,11.06-5.04s15.93,6.44,15.93,6.44l.08-15.19Z"/>
    </g>
  </g>
</svg>