<?xml version="1.0" encoding="UTF-8"?>
<svg id="Calque_2" data-name="Calque 2" xmlns="http://www.w3.org/2000/svg" viewBox="0 0 185.14 180.87">
  <defs>
    <style>
      .cls-1 {
        fill: #00005b;
      }

      .cls-2 {
        fill: #99f;
      }
    </style>
  </defs>
  <g id="_ÎÓÈ_1" data-name="—ÎÓÈ_1">
    <g>
      <rect class="cls-1" width="185.14" height="180.87" rx="30.1" ry="30.1"/>
      <g>
        <path class="cls-2" d="m66.72,46.02h-28.48v57.95h0v22.95h15.35v-22.95h13.13c15.94,0,28.98-13.04,28.98-28.98h0c0-15.94-13.04-28.98-28.98-28.98Zm13.64,28.98c0,7.61-6.08,13.84-13.51,13.84h-13.26v-27.68h13.26c7.43,0,13.51,6.23,13.51,13.84h0Z"/>
        <path class="cls-2" d="m127.21,71.72v-6.38h-19.33v61.58h19.33v-42.05s4-4.08,19.69-4.08v-15.45s-10.48-.43-19.69,6.38Z"/>
      </g>
    </g>
  </g>
</svg>