<svg width="44" height="43" viewBox="0 0 44 43" fill="none" xmlns="http://www.w3.org/2000/svg">
<path d="M30.8125 21.25C30.8125 19.805 30.685 18.4025 30.515 17H37.6975C38.0375 18.36 38.25 19.7838 38.25 21.25C38.25 22.0362 38.1862 22.8013 38.08 23.545C39.5462 23.7575 40.9062 24.225 42.16 24.905C42.3725 23.715 42.5 22.5037 42.5 21.25C42.5 9.5625 32.9375 0 21.25 0C9.49875 0 0 9.5625 0 21.25C0 32.9375 9.5625 42.5 21.25 42.5C22.5037 42.5 23.715 42.3725 24.905 42.16C23.8957 40.309 23.3695 38.2333 23.375 36.125C23.375 35.5088 23.4387 34.9137 23.5238 34.3187C22.8438 35.6575 22.1 36.9537 21.25 38.165C19.4862 35.615 18.0625 32.7887 17.1912 29.75H25.0963C26.3725 27.5323 28.2916 25.7539 30.6 24.65C30.7275 23.5238 30.8125 22.3975 30.8125 21.25ZM21.25 4.31375C23.0138 6.86375 24.4375 9.71125 25.3088 12.75H17.1912C18.0625 9.71125 19.4862 6.86375 21.25 4.31375ZM4.8025 25.5C4.4625 24.14 4.25 22.7162 4.25 21.25C4.25 19.7838 4.4625 18.36 4.8025 17H11.985C11.815 18.4025 11.6875 19.805 11.6875 21.25C11.6875 22.695 11.815 24.0975 11.985 25.5H4.8025ZM6.545 29.75H12.75C13.4937 32.4062 14.45 34.9562 15.725 37.315C11.8546 35.9798 8.5953 33.2939 6.545 29.75ZM12.75 12.75H6.545C8.58257 9.19533 11.8464 6.50566 15.725 5.185C14.45 7.54375 13.4937 10.0938 12.75 12.75ZM26.2225 25.5H16.2775C16.065 24.0975 15.9375 22.695 15.9375 21.25C15.9375 19.805 16.065 18.3813 16.2775 17H26.2225C26.4137 18.3813 26.5625 19.805 26.5625 21.25C26.5625 22.695 26.4137 24.0975 26.2225 25.5ZM26.7537 5.185C30.6637 6.52375 33.915 9.2225 35.955 12.75H29.6863C29.0212 10.1181 28.0363 7.57753 26.7537 5.185ZM43.5625 32.4062L33.4688 42.5L27.625 36.125L30.09 33.66L33.4688 37.0387L41.0975 29.41L43.5625 32.4062Z" fill="#111111"/>
</svg>
